<?xml version="1.0" encoding="utf-8"?>
<!-- Generator: Adobe Illustrator 21.0.0, SVG Export Plug-In . SVG Version: 6.00 Build 0)  -->
<svg version="1.1" id="Ebene_1" xmlns="http://www.w3.org/2000/svg" xmlns:xlink="http://www.w3.org/1999/xlink" x="0px" y="0px"
	 viewBox="0 0 58 58" style="enable-background:new 0 0 58 58;" xml:space="preserve">
<style type="text/css">
	.st0{fill:#000100;}
</style>
<g id="_x37_86-browser_x40_2x.png_1_">
	<g>
		<path class="st0" d="M39.6,0H18.4c-2.3,0-4.1,1.8-4.1,4.1v49.8c0,2.3,1.8,4.1,4.1,4.1h21.1c2.3,0,4.1-1.8,4.1-4.1V4.1
			C43.6,1.8,41.8,0,39.6,0z M41.6,53.9c0,1.1-0.9,2-2,2H18.4c-1.1,0-2-0.9-2-2V48h25.2V53.9z M41.6,46H16.4V10h25.2V46z M41.6,7.9
			H16.4V4.1c0-1.1,0.9-2,2-2h21.1c1.1,0,2,0.9,2,2V7.9z M29,54.8c1.4,0,2.6-1.2,2.6-2.6c0-1.4-1.2-2.6-2.6-2.6
			c-1.4,0-2.6,1.2-2.6,2.6C26.4,53.6,27.6,54.8,29,54.8z M33.1,4.1h-8.2c-0.6,0-1,0.5-1,1s0.5,1,1,1h8.2c0.6,0,1-0.5,1-1
			S33.7,4.1,33.1,4.1z"/>
	</g>
</g>
</svg>
