<?xml version="1.0" encoding="utf-8"?>
<!-- Generator: Adobe Illustrator 21.0.0, SVG Export Plug-In . SVG Version: 6.00 Build 0)  -->
<svg version="1.1" id="Ebene_1" xmlns="http://www.w3.org/2000/svg" xmlns:xlink="http://www.w3.org/1999/xlink" x="0px" y="0px"
	 viewBox="0 0 58 58" style="enable-background:new 0 0 58 58;" xml:space="preserve">
<style type="text/css">
	.st0{fill:#000100;}
</style>
<g id="_x37_30-envelope_x40_2x.png">
	<g>
		<path class="st0" d="M55.9,10.4H2.1c-1.1,0-2.1,0.9-2.1,2.1v33.1c0,1.1,0.9,2.1,2.1,2.1h53.9c1.1,0,2.1-0.9,2.1-2.1V12.4
			C58,11.3,57.1,10.4,55.9,10.4z M53.7,12.4L30.5,35.7c-0.8,0.8-2.1,0.8-3,0L4.3,12.4H53.7z M2.1,13.1L18,29L2.1,44.9V13.1z
			 M4.3,45.6l15.1-15.1l6.7,6.7c1.6,1.6,4.2,1.6,5.8,0l6.7-6.7l15.1,15.1H4.3z M55.9,45L40,29l15.9-15.9V45z"/>
	</g>
</g>
</svg>
