<?xml version="1.0" encoding="utf-8"?>
<!-- Generator: Adobe Illustrator 21.0.0, SVG Export Plug-In . SVG Version: 6.00 Build 0)  -->
<svg version="1.1" id="Ebene_1" xmlns="http://www.w3.org/2000/svg" xmlns:xlink="http://www.w3.org/1999/xlink" x="0px" y="0px"
	 viewBox="0 0 58 58" style="enable-background:new 0 0 58 58;" xml:space="preserve">
<style type="text/css">
	.st0{fill:#000100;}
</style>
<g id="_x37_22-location-pin_x40_2x.png">
	<g>
		<path class="st0" d="M29,0C18.1,0,9.3,8.8,9.3,19.7C9.3,36.3,29,58,29,58s19.7-21.8,19.7-38.3C48.7,8.8,39.9,0,29,0z M11.4,19.7
			C11.4,10,19.3,2.1,29,2.1c9.7,0,17.6,7.9,17.6,17.6C46.6,34.2,29,54.9,29,54.9S11.4,34.2,11.4,19.7z M29,10.4
			c-5.1,0-9.3,4.2-9.3,9.3c0,5.1,4.2,9.3,9.3,9.3c5.1,0,9.3-4.2,9.3-9.3C38.3,14.5,34.1,10.4,29,10.4z M29,26.9
			c-4,0-7.3-3.2-7.3-7.3c0-4,3.2-7.3,7.3-7.3c4,0,7.3,3.2,7.3,7.3C36.2,23.7,33,26.9,29,26.9z"/>
	</g>
</g>
</svg>
