<?xml version="1.0" encoding="utf-8"?>
<!-- Generator: Adobe Illustrator 21.0.0, SVG Export Plug-In . SVG Version: 6.00 Build 0)  -->
<svg version="1.1" id="Ebene_1" xmlns="http://www.w3.org/2000/svg" xmlns:xlink="http://www.w3.org/1999/xlink" x="0px" y="0px"
	 viewBox="0 0 160 38" style="enable-background:new 0 0 160 38;" xml:space="preserve">
<style type="text/css">
	.st0{fill:#1D1D1B;}
</style>
<g id="Logo_1_">
	<g>
		<path class="st0" d="M22,12.1c0,3.4-1,6.2-3,8.4c-2,2.2-4.7,3.3-8,3.3c-3.3,0-6-1.1-8-3.3c-2-2.2-3-5.1-3-8.6c0-3.6,1-6.4,3-8.6
			C5.1,1.1,7.7,0,11,0c3.3,0,6,1.1,8,3.3C21,5.5,22,8.5,22,12.1z M11,2.6c-2.4,0-4.4,0.9-5.8,2.6c-1.5,1.7-2.2,4-2.2,6.8
			c0,2.8,0.7,5.1,2.2,6.8c1.5,1.7,3.4,2.6,5.9,2.6c2.4,0,4.4-0.9,5.9-2.6c1.5-1.7,2.2-3.9,2.2-6.7c0-2.9-0.7-5.2-2.2-6.9
			C15.4,3.4,13.4,2.6,11,2.6z"/>
		<path class="st0" d="M27.9,0.4v22.8h-2.6V0.4H27.9z"/>
		<path class="st0" d="M34.8,0.4v3.3h-2.6V0.4H34.8z M34.8,6.8v16.4h-2.6V6.8H34.8z"/>
		<path class="st0" d="M45.9,23.2h-2.8L37.3,6.8h2.9l4.4,13.3l4.6-13.3h2.9L45.9,23.2z"/>
		<path class="st0" d="M57.3,0.4v3.3h-2.6V0.4H57.3z M57.3,6.8v16.4h-2.6V6.8H57.3z"/>
		<path class="st0" d="M61.6,11.6c0.1-3.5,2.3-5.3,6.6-5.3c2,0,3.6,0.4,4.6,1.1c1,0.8,1.6,1.9,1.6,3.3v9.6c0,0.9,0.5,1.3,1.4,1.3
			c0.2,0,0.4,0,0.6-0.1v2c-0.7,0.2-1.3,0.3-1.8,0.3c-0.8,0-1.5-0.2-1.9-0.6c-0.4-0.4-0.7-1-0.8-1.8c-1.7,1.6-3.6,2.4-5.6,2.4
			c-1.6,0-3-0.4-3.9-1.3c-1-0.9-1.5-2.1-1.5-3.5c0-0.5,0-0.9,0.1-1.3c0.1-0.4,0.2-0.7,0.3-1c0.1-0.3,0.3-0.6,0.6-0.8
			c0.3-0.3,0.5-0.5,0.7-0.6c0.2-0.2,0.5-0.3,1-0.5c0.5-0.2,0.8-0.3,1.1-0.3c0.3-0.1,0.7-0.2,1.3-0.3c0.6-0.1,1.1-0.2,1.4-0.2
			c0.3,0,0.8-0.1,1.6-0.2c1-0.1,1.7-0.3,2.1-0.6c0.4-0.3,0.6-0.7,0.6-1.2v-0.7c0-0.8-0.3-1.4-1-1.8c-0.6-0.4-1.5-0.6-2.7-0.6
			c-1.2,0-2.1,0.2-2.7,0.7c-0.6,0.5-1,1.2-1.1,2.2H61.6z M66.8,21.6c1.4,0,2.6-0.4,3.5-1.1c0.9-0.8,1.4-1.6,1.4-2.5v-2.9
			c-0.5,0.2-1.3,0.5-2.4,0.6c-1.1,0.2-2,0.3-2.7,0.4c-0.8,0.1-1.5,0.4-2.1,0.9c-0.6,0.5-0.9,1.1-0.9,2c0,0.8,0.3,1.5,0.8,1.9
			C65,21.4,65.8,21.6,66.8,21.6z"/>
		<path class="st0" d="M84,23.2h-4.7V0.4h10.1c4.8,0,7.3,2.5,7.3,7.1c0,4.6-2.7,7.6-6.9,7.6H84V23.2z M88.4,11.1
			c2.5,0,3.7-1.1,3.7-3.4c0-2.3-1.2-3.4-3.7-3.4H84v6.8H88.4z"/>
		<path class="st0" d="M114.3,15.1c0,5.4-3.2,8.8-8.3,8.8c-5.2,0-8.3-3.4-8.3-8.9c0-5.5,3.2-8.9,8.3-8.9
			C111.2,6,114.3,9.3,114.3,15.1z M102,14.9c0,3.2,1.6,5.4,4,5.4c2.3,0,4-2.2,4-5.3c0-3.3-1.6-5.5-4-5.5
			C103.6,9.5,102,11.7,102,14.9z"/>
		<path class="st0" d="M121.1,6.3v2.4c1.2-1.9,2.8-2.7,5.1-2.7c3.6,0,5.7,2.1,5.7,5.8v11.3h-4.4V12.8c0-2-0.9-3-2.8-3
			c-2.1,0-3.5,1.3-3.5,3.3v10.1h-4.4V6.3H121.1z"/>
		<path class="st0" d="M142.9,9.5h-2.4v9.2c0,1.5,0.3,1.8,1.4,1.8c0.3,0,0.6,0,1-0.1v3.1c-0.8,0.2-1.6,0.3-2.5,0.3
			c-2.9,0-4.3-1.3-4.3-4V9.5h-2.2V6.6h2.2V2.1h4.4v4.5h2.4V9.5z"/>
		<path class="st0" d="M144.5,18.8c0-3,1.6-4.7,5-5.3l1.8-0.3c1.4-0.2,3.5-0.3,3.5-2c0-1.1-0.8-1.7-2.5-1.7c-2.2,0-2.9,0.6-3.1,2.3
			h-4.2c0.3-3.9,2.7-5.8,7.2-5.8c4.6,0,6.9,1.8,6.9,5.2v9.4c0,0.9,0.2,1.3,1,2.1v0.5h-4.8c-0.4-0.5-0.5-0.8-0.5-1.7
			c-1.5,1.6-3.3,2.4-5.1,2.4C146.5,23.9,144.5,21.8,144.5,18.8z M154.7,15.2c-0.5,0.3-0.7,0.3-1.8,0.5l-1.5,0.3
			c-1.8,0.4-2.5,1-2.5,2.3c0,1.3,0.9,2,2.4,2c2.2,0,3.5-1.4,3.5-4V15.2z"/>
	</g>
	<g>
		<g>
			<path class="st0" d="M8.5,37.7H7.3l-2-7.1l-1.9,7.1H2.2L0,29.1h1.2l1.6,7l1.9-7h1.2l2,7l1.6-7h1.2L8.5,37.7z"/>
			<path class="st0" d="M18.5,33.8v2.9h5.1v1h-6.2v-8.6h5.9v1h-4.9v2.7h4.7v1H18.5z"/>
			<path class="st0" d="M36.1,33.5c0.3,0.1,0.5,0.2,0.6,0.4c0.2,0.2,0.3,0.3,0.4,0.5c0.1,0.2,0.1,0.4,0.2,0.5c0,0.2,0,0.4,0,0.6
				c0,0.1,0,0.2,0,0.3c0,0.1,0,0.2,0,0.3c0,0.3,0,0.6,0.1,0.8c0.1,0.2,0.2,0.4,0.4,0.5v0.3h-1.3c-0.2-0.4-0.2-0.8-0.2-1.4v-0.8
				c0-0.5-0.1-0.9-0.3-1.2c-0.2-0.2-0.6-0.4-1.1-0.4H32v3.7h-1.1v-8.6h4c0.8,0,1.5,0.2,1.9,0.6c0.5,0.4,0.7,1,0.7,1.7
				c0,0.5-0.1,0.9-0.3,1.2C36.9,33,36.6,33.3,36.1,33.5z M36.3,31.6c0-0.6-0.1-1-0.4-1.2c-0.3-0.2-0.7-0.3-1.2-0.3H32v3h2.6
				c0.6,0,1-0.1,1.3-0.4C36.2,32.5,36.3,32.1,36.3,31.6z"/>
			<path class="st0" d="M51.1,35.3c0,0.7-0.2,1.3-0.7,1.8c-0.5,0.4-1.1,0.7-1.8,0.7h-3.9v-8.6h3.5c0.5,0,0.9,0.1,1.2,0.2
				c0.4,0.1,0.6,0.3,0.8,0.6c0.2,0.2,0.3,0.5,0.4,0.7c0.1,0.2,0.1,0.5,0.1,0.7c0,0.9-0.4,1.5-1.2,1.9c0.6,0.2,0.9,0.5,1.2,0.8
				C51,34.3,51.1,34.8,51.1,35.3z M49.7,31.5c0-0.9-0.6-1.4-1.7-1.4h-2.1v2.7H48C49.1,32.8,49.7,32.4,49.7,31.5z M48.5,36.8
				c0.4,0,0.7-0.1,0.9-0.3c0.2-0.2,0.4-0.4,0.5-0.6c0.1-0.2,0.1-0.4,0.1-0.7c0-0.4-0.1-0.8-0.4-1.1c-0.3-0.3-0.6-0.4-1.1-0.4h-2.7v3
				H48.5z"/>
			<path class="st0" d="M59.3,33.8v2.9h5.1v1h-6.2v-8.6h5.9v1h-4.9v2.7H64v1H59.3z"/>
			<path class="st0" d="M75.8,35.2h-3.3l-0.9,2.6h-1.2l3.1-8.6h1.4l3,8.6h-1.2L75.8,35.2z M75.5,34.2l-1.3-3.9l-1.4,3.9H75.5z"/>
			<path class="st0" d="M84.8,33.5c0,0.3,0,0.6,0.1,0.9c0.1,0.3,0.2,0.6,0.3,0.9c0.1,0.3,0.3,0.6,0.5,0.9c0.2,0.2,0.5,0.5,0.9,0.6
				c0.4,0.2,0.8,0.2,1.3,0.2c0.8,0,1.4-0.2,1.9-0.7c0.5-0.5,0.8-1.1,0.8-1.9v-0.2h-2.6v-1h3.6v4.6h-0.7l-0.3-1.1
				c-0.8,0.9-1.8,1.4-2.9,1.4c-1.2,0-2.1-0.4-2.8-1.2c-0.7-0.8-1.1-1.9-1.1-3.2c0-0.4,0-0.8,0.1-1.1c0.1-0.4,0.2-0.8,0.4-1.2
				c0.2-0.4,0.4-0.8,0.7-1.1c0.3-0.3,0.7-0.6,1.2-0.8c0.5-0.2,1.1-0.3,1.7-0.3c1,0,1.8,0.2,2.4,0.7c0.6,0.5,1,1.2,1.2,2h-1.1
				c-0.1-0.5-0.4-1-0.8-1.3c-0.4-0.3-1-0.5-1.6-0.5c-0.9,0-1.6,0.3-2.2,1C85,31.6,84.8,32.4,84.8,33.5z"/>
			<path class="st0" d="M100,33.8v2.9h5.1v1h-6.2v-8.6h5.9v1H100v2.7h4.7v1H100z"/>
			<path class="st0" d="M118.8,29.1v8.6h-1.2l-4.4-7v7h-1v-8.6h1.2l4.5,7v-7H118.8z"/>
			<path class="st0" d="M129.4,30.1v7.6h-1.1v-7.6h-2.8v-1h6.7v1H129.4z"/>
			<path class="st0" d="M144.5,29.1h1.1v6c0,0.9-0.3,1.5-0.9,2.1c-0.6,0.5-1.4,0.8-2.4,0.8c-1,0-1.8-0.3-2.4-0.8
				c-0.6-0.5-0.9-1.2-0.9-2.1v-6h1.1v6c0,0.6,0.2,1.1,0.6,1.4c0.4,0.3,0.9,0.5,1.6,0.5c0.7,0,1.2-0.2,1.6-0.5
				c0.4-0.3,0.6-0.8,0.6-1.4V29.1z"/>
			<path class="st0" d="M158.3,33.5c0.3,0.1,0.5,0.2,0.6,0.4c0.2,0.2,0.3,0.3,0.4,0.5c0.1,0.2,0.1,0.4,0.1,0.5c0,0.2,0,0.4,0,0.6
				c0,0.1,0,0.2,0,0.3c0,0.1,0,0.2,0,0.3c0,0.3,0,0.6,0.1,0.8c0.1,0.2,0.2,0.4,0.4,0.5v0.3h-1.3c-0.2-0.4-0.2-0.8-0.2-1.4v-0.8
				c0-0.5-0.1-0.9-0.3-1.2c-0.2-0.2-0.6-0.4-1.1-0.4h-2.8v3.7h-1.1v-8.6h4c0.8,0,1.5,0.2,1.9,0.6c0.5,0.4,0.7,1,0.7,1.7
				c0,0.5-0.1,0.9-0.3,1.2C159.1,33,158.8,33.3,158.3,33.5z M158.5,31.6c0-0.6-0.2-1-0.4-1.2c-0.3-0.2-0.7-0.3-1.2-0.3h-2.6v3h2.6
				c0.6,0,1-0.1,1.3-0.4C158.4,32.5,158.5,32.1,158.5,31.6z"/>
		</g>
	</g>
</g>
</svg>
